<?xml version="1.0" standalone="no"?>
<!DOCTYPE svg PUBLIC "-//W3C//DTD SVG 20010904//EN"
 "http://www.w3.org/TR/2001/REC-SVG-20010904/DTD/svg10.dtd">
<svg version="1.0" xmlns="http://www.w3.org/2000/svg"
 width="348.000000pt" height="145.000000pt" viewBox="0 0 348.000000 145.000000"
 preserveAspectRatio="xMidYMid meet">
<metadata>
Created by potrace 1.15, written by Peter Selinger 2001-2017
</metadata>
<g transform="translate(0.000000,145.000000) scale(0.100000,-0.100000)"
fill="#000000" stroke="none">
<path d="M1698 1010 c-47 -9 -98 -43 -129 -88 -20 -30 -24 -48 -24 -112 0 -65
4 -82 25 -112 41 -61 93 -88 169 -88 83 0 139 30 178 98 89 152 -42 334 -219
302z m108 -49 c109 -50 134 -183 50 -267 -146 -146 -372 59 -244 221 24 31 91
65 128 65 14 0 43 -9 66 -19z"/>
<path d="M927 820 c-37 -77 -67 -144 -67 -150 0 -28 29 -4 50 40 l23 50 74 0
73 0 25 -50 c14 -27 32 -50 40 -50 8 0 15 3 15 7 0 3 -30 71 -67 150 -47 101
-71 143 -83 143 -12 0 -37 -42 -83 -140z"/>
<path d="M2180 810 c0 -127 2 -150 15 -150 12 0 15 19 15 115 0 63 3 115 8
115 4 0 48 -52 97 -115 52 -66 97 -114 108 -115 15 0 17 14 17 150 0 127 -2
150 -15 150 -12 0 -15 -19 -15 -115 0 -63 -4 -115 -9 -115 -5 0 -50 52 -100
115 -50 63 -98 115 -106 115 -13 0 -15 -23 -15 -150z"/>
</g>
</svg>
